<svg width="161" height="42" viewBox="0 0 161 42" fill="none" xmlns="http://www.w3.org/2000/svg">
<g clip-path="url(#clip0)">
<path d="M101.46 8.94511C96.3283 9.08987 92.3033 13.2068 92.3033 18.074V29.1867C92.3033 29.3131 92.3563 29.4343 92.4507 29.5237C92.545 29.6131 92.673 29.6633 92.8064 29.6633H95.65C95.7835 29.6633 95.9114 29.6131 96.0058 29.5237C96.1002 29.4343 96.1532 29.3131 96.1532 29.1867V18.0341C96.1532 15.1745 98.4616 12.7284 101.466 12.5872C104.554 12.4433 107.182 14.6976 107.334 17.623C107.334 17.7118 107.341 17.7994 107.341 17.8872V29.1924C107.341 29.3188 107.394 29.44 107.488 29.5294C107.583 29.6188 107.711 29.669 107.844 29.669H110.687C110.753 29.669 110.818 29.6567 110.879 29.6327C110.94 29.6087 110.996 29.5736 111.043 29.5294C111.089 29.4851 111.126 29.4326 111.152 29.3748C111.177 29.3169 111.19 29.255 111.19 29.1924V17.8902C111.183 12.9426 106.943 8.93677 101.72 8.94243C101.634 8.94153 101.546 8.94243 101.46 8.9454V8.94511ZM125.461 9.04608C120.568 8.83728 116.126 11.7394 114.594 16.1468C113.062 20.5538 114.815 25.3883 118.882 27.9741C122.949 30.5599 128.336 30.265 132.062 27.2526V29.1799C132.062 29.2425 132.075 29.3044 132.1 29.3623C132.125 29.4201 132.162 29.4726 132.209 29.5169C132.256 29.5611 132.311 29.5962 132.372 29.6202C132.433 29.6441 132.499 29.6565 132.565 29.6565H135.41C135.544 29.6565 135.672 29.6063 135.766 29.5169C135.861 29.4275 135.914 29.3063 135.914 29.1799V19.5952C135.907 14.0191 131.341 9.28438 125.461 9.04608ZM124.986 26.0877C123.586 26.0882 122.218 25.6955 121.053 24.9592C119.889 24.2229 118.981 23.176 118.445 21.951C117.908 20.7259 117.768 19.3777 118.04 18.0769C118.313 16.7761 118.987 15.5811 119.976 14.643C120.966 13.7049 122.227 13.0659 123.6 12.8067C124.973 12.5476 126.396 12.6799 127.69 13.187C128.984 13.6942 130.089 14.5533 130.867 15.6558C131.646 16.7583 132.061 18.0546 132.062 19.3808C132.058 23.0821 128.893 26.0826 124.986 26.0877ZM150.546 9.04698C145.652 8.83817 141.211 11.7403 139.679 16.1477C138.147 20.555 139.9 25.3891 143.966 27.975C148.034 30.5611 153.42 30.2659 157.146 27.2535V31.3448C157.146 35.1034 153.9 38.2966 149.932 38.228C148.824 38.2117 147.737 37.9475 146.757 37.4572C145.778 36.9669 144.935 36.2643 144.297 35.4066C144.223 35.3105 144.113 35.2444 143.99 35.2218C143.867 35.1991 143.739 35.2215 143.632 35.2845L141.217 36.7029C141.159 36.7371 141.109 36.7822 141.07 36.8354C141.031 36.8885 141.003 36.9487 140.99 37.0123C140.976 37.0758 140.976 37.1413 140.99 37.2048C141.004 37.2683 141.031 37.3284 141.071 37.3815C142.049 38.7425 143.359 39.8608 144.889 40.6421C146.419 41.4235 148.125 41.8451 149.863 41.8713C155.987 41.9815 161 37.1185 161 31.3162V19.606C160.997 14.0191 156.43 9.28438 150.551 9.04608L150.546 9.04698ZM150.074 26.0877C148.674 26.0879 147.305 25.6948 146.141 24.9582C144.977 24.2216 144.07 23.1745 143.534 21.9493C142.998 20.7241 142.857 19.3759 143.13 18.0752C143.403 16.7744 144.077 15.5796 145.067 14.6417C146.057 13.7039 147.318 13.0652 148.691 12.8064C150.064 12.5476 151.488 12.6803 152.781 13.1877C154.075 13.6952 155.18 14.5546 155.958 15.6573C156.736 16.7599 157.151 18.0564 157.151 19.3826C157.147 23.0836 153.981 26.0829 150.074 26.0877H150.074ZM58.8581 9.04638C53.9652 8.83877 49.5245 11.7418 47.9934 16.1489C46.4623 20.5562 48.2154 25.3897 52.2825 27.9753C56.3497 30.5605 61.7363 30.2653 65.4613 27.2529V31.3442C65.4613 35.1028 62.2152 38.2977 58.2462 38.2274C57.1386 38.2108 56.051 37.9465 55.0717 37.4562C54.0925 36.9658 53.2494 36.2632 52.6112 35.4057C52.5373 35.3095 52.4277 35.2435 52.3045 35.2208C52.1812 35.1981 52.0535 35.2206 51.947 35.2836L49.532 36.702C49.4755 36.7351 49.4264 36.7785 49.3877 36.8297C49.3489 36.8809 49.3213 36.9388 49.3063 37.0001C49.2913 37.0615 49.2894 37.125 49.3005 37.1871C49.3116 37.2492 49.3356 37.3086 49.371 37.3618C49.3761 37.3684 49.3798 37.3752 49.3849 37.3809C50.3614 38.7409 51.6683 39.859 53.1958 40.6411C54.7233 41.4232 56.4267 41.8464 58.1628 41.8752C64.2871 41.986 69.3004 37.1226 69.3004 31.3204V19.606C69.3074 14.0191 64.7409 9.28438 58.8581 9.04608V9.04638ZM58.3833 26.088C54.474 26.088 51.3049 23.086 51.3049 19.3829C51.3049 15.6803 54.474 12.678 58.3833 12.678C62.2922 12.678 65.4616 15.68 65.4616 19.3831C65.4562 23.0842 62.2903 26.0832 58.3833 26.0883V26.088ZM43.3895 9.18072L40.5437 9.22272C40.413 9.22496 40.2884 9.27526 40.1962 9.36299C40.104 9.45072 40.0515 9.56899 40.0497 9.69277V20.4442C40.0465 23.3729 37.5378 25.7451 34.4458 25.743C34.3553 25.743 34.2656 25.743 34.1751 25.7365C31.1702 25.5971 28.8627 23.1396 28.8627 20.2896V9.70855C28.8627 9.58215 28.8097 9.46093 28.7153 9.37155C28.621 9.28217 28.493 9.23196 28.3596 9.23196H25.516C25.3825 9.23196 25.2546 9.28217 25.1602 9.37155C25.0659 9.46093 25.0129 9.58215 25.0129 9.70855V20.2589C25.0129 25.1202 29.0379 29.2439 34.1697 29.3887C39.3919 29.5287 43.7448 25.6325 43.8926 20.6857V9.65434C43.8926 9.52794 43.8396 9.40672 43.7453 9.31734C43.6509 9.22796 43.5229 9.17774 43.3895 9.17774V9.18072ZM81.5377 17.6463C78.7504 16.9123 77.0577 16.3654 77.0577 14.9356C77.0577 12.8669 79.4466 12.1166 81.0525 12.1166C82.8842 12.1166 83.993 12.516 85.4341 13.3557C85.5457 13.4191 85.679 13.439 85.8058 13.4113C85.9326 13.3836 86.0432 13.3104 86.1143 13.2071L87.4343 11.2673C87.506 11.1613 87.5305 11.0327 87.5025 10.9097C87.4744 10.7866 87.3961 10.6791 87.2846 10.6105L87.2696 10.6022C85.3539 9.50511 83.1574 8.92672 80.9189 8.92991C77.2963 8.92991 73.5669 11.1893 73.5669 14.9687C73.5669 18.8273 77.1894 19.754 80.3755 20.5717C83.3942 21.3437 85.2215 21.9425 85.2215 23.744C85.2215 25.399 83.4263 26.6477 81.0475 26.6477C78.7573 26.6477 76.8835 25.6677 75.6137 24.7413C75.5111 24.6652 75.3809 24.6303 75.2514 24.6442C75.1219 24.6582 75.0033 24.7198 74.9213 24.8157L73.3534 26.6268C73.2702 26.7246 73.2312 26.8496 73.2447 26.9745C73.2582 27.0995 73.3233 27.2143 73.4258 27.294C75.487 28.9314 78.2322 29.8274 81.2185 29.8274C85.5558 29.8274 88.7012 27.2175 88.7012 23.6201C88.7113 19.5348 84.7284 18.4863 81.5349 17.6454L81.5377 17.6463ZM12.2052 9.10596C10.7131 8.9391 9.20075 9.06676 7.76334 9.48088C6.32593 9.89501 4.99463 10.5866 3.85331 11.5122V0.476596C3.85331 0.350195 3.8003 0.228971 3.70595 0.139592C3.61159 0.0502126 3.48362 0 3.35018 0C3.25899 0 3.17 0.0238298 3.09233 0.0685106L0.239613 1.71187C0.166341 1.75455 0.105842 1.8143 0.063893 1.88543C0.021944 1.95656 -5.39048e-05 2.03669 9.91936e-08 2.11817V19.1723C9.91936e-08 24.7532 4.56649 29.484 10.4461 29.7223C16.3085 29.9508 21.3146 25.7529 21.7863 20.213C22.2579 14.6732 18.0263 9.76962 12.2008 9.10536L12.2049 9.10625L12.2052 9.10596ZM10.9232 26.0877C7.01388 26.0877 3.84482 23.0857 3.84482 19.3826C3.84482 15.68 7.01388 12.6777 10.9232 12.6777C14.8324 12.6777 18.0015 15.6797 18.0015 19.3829C18.0017 20.2634 17.8187 21.1354 17.463 21.949C17.1074 22.7625 16.586 23.5018 15.9287 24.1244C15.2714 24.7471 14.491 25.241 13.6321 25.5779C12.7733 25.9148 11.8527 26.0881 10.9232 26.088V26.0877Z" fill="#000D47"/>
</g>
<defs>
<clipPath id="clip0">
<rect width="161" height="42" fill="white"/>
</clipPath>
</defs>
</svg>
