<svg width="233" height="38" viewBox="0 0 233 38" fill="none" xmlns="http://www.w3.org/2000/svg">
<g clip-path="url(#clip0)">
<path d="M222.186 9.03106C228.722 9.03106 232.638 12.8611 232.638 19.096C232.638 19.8268 232.554 20.6382 232.554 20.715H217.419C217.546 23.2735 219.912 25.1372 222.752 25.1372C225.421 25.1372 226.882 23.9129 227.571 22.177L232.339 23.4853C231.263 26.8405 227.906 29.6438 222.7 29.6438C216.893 29.6438 211.775 25.8133 211.775 19.2643C211.775 13.0507 216.765 9.03106 222.186 9.03106ZM102.759 9.63029V20.8319C102.759 23.0029 103.954 24.7426 106.63 24.7426C109.167 24.7426 110.613 23.1641 110.613 20.9125V9.63029H116.332V25.5393C116.335 26.7128 116.407 27.8853 116.548 29.0512H111.091C110.973 28.3586 110.916 27.6585 110.92 26.9575C109.757 28.7848 107.303 29.5632 105.069 29.5632C99.9468 29.5632 97.0234 26.1315 97.0234 21.888V9.63071H102.759V9.63029ZM161.359 0.475211L161.364 25.5393C161.364 26.8405 161.451 28.262 161.534 29.0512H156.074C155.933 28.3079 155.861 27.5549 155.859 26.8004C154.911 28.3426 152.76 29.5268 149.92 29.5268C143.898 29.5268 139.597 25.1848 139.597 19.2936C139.597 13.6103 143.771 9.15132 149.749 9.15132C153.405 9.15132 155.126 10.5331 155.723 11.5566V0.474793H161.359V0.475211ZM205.996 3.83007V9.63029H210.257V14.2897H205.996V22.4179C205.996 24.1175 206.856 24.6687 208.493 24.6687C209.086 24.675 209.677 24.6225 210.257 24.5121V28.8717C209.224 29.2207 208.127 29.3823 207.027 29.3473C202.901 29.3473 200.32 27.0957 200.32 23.3462V14.2897H197.552V9.62945C199.786 9.62945 200.818 8.2886 200.818 6.55271V3.83007H205.996ZM84.2503 1.06734C90.1845 1.06734 93.5384 4.26143 93.5384 8.60345C93.5384 11.4869 91.6467 13.8149 89.1096 14.6041C92.0767 15.2764 94.4864 17.7619 94.4864 21.2341C94.4864 25.7732 90.7866 29.0512 85.0667 29.0512H73.2856V1.06776H84.2508L84.2503 1.06734ZM126.656 9.63029V29.0512H120.941V9.62945H126.656V9.63029ZM136.984 0.475211V29.0512H131.264V0.475211H136.984ZM171.372 0.475211V16.8557L178.685 9.63029H186.172L177.697 17.8024L186.343 29.0516H179.334L173.758 21.6287L171.368 23.9204V29.037H165.653V0.475211H171.372ZM194.314 9.63029V29.0512H188.591V9.62945H194.314V9.63029ZM150.609 13.855C147.686 13.855 145.376 15.8289 145.376 19.3007C145.376 22.7729 147.599 24.8265 150.609 24.8265C153.533 24.8265 155.815 22.7762 155.815 19.2643C155.815 15.752 153.533 13.855 150.609 13.855ZM84.0391 17.1297H79.1289V24.5125H83.9481C86.8315 24.5125 88.5522 23.1307 88.5522 20.8795C88.5522 18.6284 87.0031 17.1297 84.0396 17.1297H84.0391ZM217.538 17.1297H227.001C226.918 15.1962 225.54 13.3033 222.27 13.3033C221.097 13.2634 219.953 13.6381 219.072 14.3501C218.192 15.0621 217.642 16.057 217.538 17.1297ZM83.3101 5.64279H79.1279V12.6306H83.3465C86.0542 12.6306 87.6916 11.2493 87.6916 9.11875C87.6916 6.98783 86.1857 5.64279 83.3101 5.64279ZM123.78 2.23621e-06C124.476 -8.33937e-05 125.156 0.188487 125.735 0.542019C126.314 0.895552 126.767 1.39828 127.036 1.98703C127.304 2.57579 127.378 3.22431 127.246 3.85111C127.114 4.47791 126.784 5.05504 126.296 5.50998C125.808 5.96491 125.184 6.27737 124.503 6.40808C123.822 6.5388 123.115 6.48194 122.469 6.24466C121.823 6.00737 121.268 5.60024 120.874 5.07443C120.479 4.54861 120.263 3.92755 120.252 3.2893C120.244 2.85966 120.33 2.43289 120.503 2.03389C120.677 1.6349 120.936 1.27168 121.264 0.965459C121.593 0.659236 121.985 0.416143 122.417 0.250378C122.849 0.0846125 123.312 -0.00050301 123.781 2.23621e-06H123.78ZM191.43 2.23621e-06C192.126 -1.08103e-06 192.806 0.188639 193.385 0.542222C193.964 0.895805 194.417 1.39856 194.685 1.98732C194.954 2.57608 195.027 3.22459 194.896 3.85137C194.764 4.47814 194.433 5.05523 193.945 5.51013C193.457 5.96502 192.834 6.27744 192.153 6.40812C191.472 6.5388 190.764 6.48191 190.118 6.24462C189.473 6.00732 188.918 5.60019 188.523 5.07438C188.129 4.54857 187.913 3.92754 187.902 3.2893C187.894 2.85966 187.979 2.43289 188.153 2.03389C188.327 1.6349 188.586 1.27168 188.914 0.965459C189.243 0.659236 189.634 0.416143 190.066 0.250378C190.498 0.0846125 190.962 -0.00050301 191.43 2.23621e-06Z" fill="black"/>
<path d="M0 1.43231L19.9142 10.3869V28.6604L0 19.7066V1.43231Z" fill="#30F2A2"/>
<path d="M40.0283 1.43231L59.7437 10.387L40.0288 19.7066L40.0283 1.43231Z" fill="#30F2A2"/>
<path d="M40.0281 1.43231L19.9146 10.3874V28.6608L40.0281 19.707V1.43231Z" fill="#14CC80"/>
<path d="M59.7437 10.3869L40.0288 19.7066V37.98L59.7442 28.6604L59.7437 10.3869Z" fill="#14CC80"/>
</g>
<defs>
<clipPath id="clip0">
<rect width="233" height="38" fill="white"/>
</clipPath>
</defs>
</svg>
