<svg width="175" height="34" viewBox="0 0 175 34" fill="none" xmlns="http://www.w3.org/2000/svg">
<path d="M94.8325 10.1725C101.264 10.1725 106.12 15.0788 106.12 21.9194C106.12 28.7166 101.264 33.6665 94.8325 33.6665C88.4013 33.6665 83.5447 28.7166 83.5447 21.9194C83.5447 15.0788 88.4016 10.1725 94.8325 10.1725ZM164.894 10.1725C170.681 10.1725 173.964 13.9084 174.87 17.6443L169.731 19.4439C169.213 17.5993 167.873 15.7094 165.024 15.7094C162.086 15.7094 159.625 17.9146 159.625 21.9194C159.625 25.9255 162.13 28.176 165.067 28.176C168.003 28.176 169.472 26.1508 169.947 24.4402L175 26.1961C174.049 29.8857 170.724 33.6665 165.067 33.6665C158.804 33.6665 153.881 28.7166 153.881 21.9194C153.881 15.0788 158.717 10.1725 164.894 10.1725H164.894ZM57.4088 10.1725C64.1925 10.1725 66.7139 14.1409 66.7139 18.6049V29.5182C66.7139 30.6903 66.8445 32.2691 66.975 33.0353H61.6704C61.5394 32.4484 61.4526 31.2309 61.4526 30.3744C60.3654 32.1338 58.3208 33.6662 55.1465 33.6662C50.5801 33.6662 47.7979 30.4647 47.7979 26.9926C47.7979 23.0238 50.6238 20.8142 54.1898 20.274L59.4524 19.4614C60.6692 19.2807 61.0606 18.6502 61.0606 17.884C61.0606 16.3052 59.8865 14.9974 57.4512 14.9974C54.9288 14.9974 53.537 16.6665 53.364 18.6049L48.2319 17.4777C48.5802 14.0056 51.6673 10.1722 57.4088 10.1722V10.1725ZM77.9884 4.3599V10.9192H82.2687V16.1833H77.9877V25.3743C77.9877 27.2938 78.8525 27.9178 80.4958 27.9178C81.1873 27.9178 81.9656 27.8285 82.2684 27.7392V32.6469C81.7489 32.8704 80.7112 33.1819 79.0254 33.1819C74.8736 33.1819 72.2801 30.6398 72.2801 26.4015V16.1833H68.4314V10.9192H69.5125C71.7609 10.9192 72.7986 9.40186 72.7986 7.43913V4.3599H77.9877H77.9884ZM134.011 10.2883C138.011 10.2883 141.836 12.7631 141.836 18.7024V33.0556H136.165V19.9171C136.165 17.5323 135.022 15.7334 132.341 15.7334C129.835 15.7334 128.34 17.7126 128.34 20.0974V33.0552H122.538V19.9175C122.538 17.5327 121.351 15.7338 118.712 15.7338C116.163 15.7338 114.668 17.668 114.668 20.0978V33.0556H108.821V10.9192H114.405V13.6182C115.592 11.4587 118.361 10.2886 120.735 10.2886C123.679 10.2886 126.054 11.5937 127.152 13.9785C128.867 11.2794 131.153 10.2886 134.011 10.2886L134.011 10.2883ZM150.999 10.8992V32.9398H145.416V10.8992H150.999ZM61.1491 23.0091L56.4498 23.7969C55.0098 24.0287 53.8665 24.9079 53.8665 26.667C53.8665 28.0098 54.7555 29.3063 56.5769 29.3063C58.9473 29.3063 61.1491 28.0562 61.1491 24.0287V23.0091ZM94.8325 15.5013C91.9929 15.5013 89.3706 17.6151 89.3706 21.7981C89.3706 25.9365 91.9929 28.0957 94.8325 28.0957C97.6735 28.0957 100.294 25.9818 100.294 21.7981C100.294 17.6151 97.6735 15.5013 94.8325 15.5013ZM148.208 0C150.183 0 151.727 1.63887 151.727 3.67818C151.727 5.62717 150.182 7.26604 148.208 7.26604C146.275 7.26604 144.688 5.62717 144.688 3.67784C144.688 1.63887 146.275 0 148.208 0Z" fill="black"/>
<path d="M25.3808 33.1187H4.99502C2.23638 33.1187 0 30.8717 0 28.1001C0 25.3276 2.23604 23.0802 4.99502 23.0784L16.5464 23.0726C17.48 23.0721 18.3972 23.3188 19.2057 23.788C20.0142 24.2571 20.6853 24.9321 21.1514 25.7449L25.3808 33.1187Z" fill="#1E6EFA"/>
<path d="M3.78418 20.2496L13.9772 2.51051C15.3571 0.109903 18.4114 -0.712622 20.8005 0.673135C23.1897 2.05924 24.0093 5.12885 22.6309 7.53049L16.8603 17.5849C16.3939 18.3975 15.7226 19.0723 14.9141 19.5413C14.1055 20.0102 13.1882 20.2568 12.2546 20.2561L3.78418 20.2496Z" fill="#FF3C5A"/>
<path d="M25.7057 7.89142L35.8984 25.6308C37.2779 28.0314 36.4593 31.1007 34.0702 32.4868C31.681 33.8729 28.6253 33.0511 27.2448 30.6508L21.4647 20.6019C20.9975 19.7898 20.7515 18.8684 20.7515 17.9303C20.7515 16.9923 20.9975 16.0709 21.4647 15.2588L25.7054 7.89142H25.7057Z" fill="#FFC5CE"/>
</svg>
