<svg width="190" height="30" viewBox="0 0 190 30" fill="none" xmlns="http://www.w3.org/2000/svg">
<path d="M95.4929 9.68083C95.6087 7.18083 96.4069 5.1375 97.6545 3.54333V1.42H95.9964C92.6447 1.42 89.8077 2.8625 88.1582 6.12083H88.0617V1.77833H79.4653V28.2596H88.0636V17.5692C88.0636 13.0317 89.2459 9.5725 94.017 9.5725C94.5366 9.57666 95.0227 9.61 95.4929 9.68083Z" fill="#717172"/>
<path d="M160.59 9.58418C161.304 7.24376 162.463 5.15917 163.968 3.48667V1.41792H162.313C158.96 1.41792 156.126 2.85959 154.468 6.11667H154.375V1.77834H145.773V28.2596H154.375V17.5692C154.375 13.0317 155.561 9.57251 160.333 9.57251L160.59 9.58418Z" fill="#717172"/>
<path d="M112.954 8.59125C111.627 7.81708 109.781 7.30083 108.313 7.30083C107.326 7.30083 105.622 7.76166 105.622 9.1075C105.622 10.9158 108.313 11.1721 109.502 11.4362C113.51 12.3112 116.542 14.3779 116.542 19.2754C116.542 26.2421 110.729 29.1421 105.102 29.1421C101.65 29.1421 98.255 28.0567 95.3208 26.0942L98.4391 19.5337C100.185 20.8812 103.115 22.2187 105.242 22.2187C106.33 22.2187 107.935 21.6533 107.935 20.2075C107.935 18.1425 105.242 18.0342 102.545 17.2617C99.8552 16.4875 97.1651 15.0454 97.1651 10.2954C97.1651 3.79 102.545 0.903748 107.848 0.903748C110.588 0.903748 113.331 1.36625 115.83 2.60583L112.954 8.59125H112.954Z" fill="#717172"/>
<path d="M189.753 28.2596H181.155V25.3138H181.06C179.548 27.9463 176.564 29.1321 173.735 29.1321C166.547 29.1321 161.495 22.5754 161.495 14.9863C161.495 7.40501 166.457 0.897507 173.638 0.897507C176.424 0.897507 179.358 2.03251 181.153 4.35334V1.77834H189.749L189.753 28.2596H189.753ZM170.38 15.0433C170.38 18.3967 172.415 20.9779 175.907 20.9779C179.403 20.9779 181.429 18.4008 181.429 15.0433C181.429 11.7908 179.403 9.05584 175.907 9.05584C172.415 9.05834 170.38 11.7908 170.38 15.0433Z" fill="#717172"/>
<path d="M144.417 16.5958H126.314C126.314 20.4125 128.162 22.475 131.704 22.475C133.547 22.475 134.868 21.8071 135.815 20.05H144.087C142.717 26.2971 137.28 29.1362 131.753 29.1362C123.726 29.1362 117.725 24.1771 117.725 15.0454C117.725 6.21916 123.246 0.903748 131.137 0.903748C139.547 0.903748 144.42 6.58375 144.42 15.6129L144.417 16.5962L144.417 16.5958ZM136.43 11.1721C136.003 8.6425 133.876 6.99125 131.564 6.99125C129.056 6.99125 126.986 8.43166 126.458 11.1721H136.43Z" fill="#717172"/>
<path d="M52.117 14.5825C52.1076 14.3563 52.0948 14.1303 52.0784 13.9046V13.8967C51.8854 11.44 51.1625 9.14083 49.936 7.06417C49.3958 6.14883 48.7673 5.30317 48.062 4.5425C47.0389 3.43708 45.8544 2.52292 44.5192 1.8C42.5101 0.7225 40.2902 0.17875 37.9215 0.17875C37.6899 0.17875 37.4476 0.1825 37.2038 0.1925C35.5406 0.277083 33.9315 0.631666 32.4189 1.25625C30.8937 1.875 29.5656 2.6925 28.4794 3.67375C28.2586 3.87083 28.0181 4.11292 27.7602 4.37917L27.5739 4.58375L27.3197 4.88708H27.3231L27.2039 5.01917L27.1461 5.09L26.8425 5.44875C26.6238 5.72495 26.4109 6.00683 26.2038 6.29417L26.202 6.29L26.1946 6.28208C25.7789 6.84958 25.3949 7.43667 25.1121 7.96458C24.9198 8.30559 24.7338 8.65108 24.5543 9.00083L22.0751 14.63L22.0784 14.6337L21.9485 14.9196L21.6747 15.5421C21.131 16.7775 20.5484 18.0087 19.8971 19.0254C18.4461 20.8121 16.8059 21.6871 14.6966 21.6871C14.5489 21.6871 14.3982 21.6787 14.2439 21.6692C12.9732 21.6121 11.8837 21.2754 10.917 20.6329C10.815 20.5653 10.7148 20.4944 10.6164 20.4204C9.82711 19.8312 9.22186 19.0746 8.76912 18.1308C8.2585 17.0608 8.03213 15.9675 8.06404 14.8092C8.06553 14.7775 8.06738 14.75 8.06738 14.7242C8.13566 12.8804 8.76207 11.4458 10.0238 10.2067C10.3242 9.91754 10.6465 9.6585 10.9871 9.4325C11.0343 9.40083 11.0818 9.37125 11.1293 9.34375C12.0663 8.77042 13.1332 8.485 14.3559 8.485L14.7367 8.49667C16.6794 8.57958 18.1778 9.26125 19.3728 10.5908L23.1208 3.03542C22.2239 2.36167 21.2115 1.78208 20.0956 1.31125C20.0533 1.29375 20.0096 1.27375 19.9658 1.25833C19.8322 1.205 19.7008 1.15 19.5639 1.10042C18.3779 0.655416 17.1336 0.381666 15.8529 0.2575C15.821 0.25125 15.7861 0.2475 15.7546 0.24375C15.5579 0.229583 15.3579 0.202083 15.1616 0.1925C14.948 0.183322 14.7344 0.178043 14.5207 0.176666H14.3994C12.0429 0.18625 9.85346 0.728333 7.85104 1.80167C5.60852 3.01542 3.79053 4.78292 2.44309 7.06C1.09936 9.33833 0.365705 11.8663 0.260686 14.5792C0.251661 14.8089 0.246959 15.0388 0.246584 15.2687C0.244729 19.0625 1.47676 22.4 3.92598 25.2017C6.48281 28.1412 9.80781 29.7254 13.7997 29.9125C14.0557 29.9242 14.3088 29.9321 14.5612 29.9321C16.8196 29.9321 18.9093 29.4808 20.7833 28.5787C21.252 28.3537 21.7066 28.09 22.1712 27.7967C22.4243 27.6329 22.6629 27.4596 22.8996 27.2746L23.0752 27.1425L23.3698 26.9158C23.7216 26.6297 24.0585 26.3212 24.3788 25.9917L24.4913 25.8717C24.6815 25.6704 24.8675 25.4641 25.049 25.2529L25.7211 24.4L25.9771 24.0392L26.0966 23.8425L26.2161 23.6492C27.2143 21.7658 30.464 14.9117 30.464 14.9117V14.8979L30.657 14.48L30.8184 14.1529C31.2975 13.1737 31.6433 12.4783 32.1013 11.7475L32.1135 11.7258C33.1823 9.98625 35.0192 8.74667 37.1845 8.53833C40.8168 8.1875 43.9996 10.8667 44.2928 14.5233C44.5841 18.18 41.8748 21.4287 38.2425 21.7817C37.4862 21.8546 36.7511 21.7975 36.0579 21.6258L36.0404 21.6342C33.3752 21.0112 31.6782 18.8283 30.8414 17.8529L27.3457 25.0696C27.3457 25.0696 28.4323 26.2992 29.1763 26.9137C29.9222 27.5262 30.8852 28.1296 31.6537 28.5037C33.5188 29.3983 35.5472 29.9342 37.7879 29.9342C38.0477 29.9342 37.9953 29.9342 38.2655 29.9225C42.2537 29.735 45.8087 28.0192 48.3726 25.0796C50.8011 22.2879 52.1188 19.1004 52.1311 15.3271V15.2146C52.1289 15.0038 52.1242 14.7931 52.117 14.5825Z" fill="#717172"/>
<path d="M65.4877 29.1542C63.6749 29.1542 62.031 28.9175 60.5551 28.4446C59.0793 27.9717 57.8194 27.225 56.7755 26.2008C55.7279 25.1758 54.9208 23.8717 54.3523 22.29C53.7838 20.7079 53.4995 18.8008 53.4995 16.5783V1.7725H61.7938V16.46C61.7938 18.125 62.1482 19.3308 62.8552 20.0833C63.5643 20.8375 64.4646 21.2142 65.556 21.2142C66.6718 21.2142 67.5773 20.8633 68.2761 20.16C68.9708 19.4567 69.3215 18.2904 69.3215 16.6512V1.77208H77.6158V16.3833C77.6158 18.6846 77.3248 20.6408 76.7437 22.2504C76.1629 23.8621 75.3436 25.1783 74.2889 26.2025C73.2291 27.2275 71.9536 27.9717 70.4533 28.4467C68.953 28.9175 67.2983 29.1537 65.4877 29.1537V29.1542Z" fill="#717172"/>
</svg>
